<svg width="122" height="122" viewBox="0 0 122 122" fill="none" xmlns="http://www.w3.org/2000/svg">
<g clip-path="url(#clip0_1895_13658)">
<g clip-path="url(#clip1_1895_13658)">
<path opacity="0.75" d="M79.597 24.7071C68.2229 13.333 50.8489 11.6128 37.6619 19.5501C35.3134 20.9629 33.0979 22.6819 31.0727 24.7071C20.344 35.4345 18.2054 51.5019 24.6592 64.3583C26.2635 67.5583 28.4021 70.5595 31.0727 73.2301C43.5704 85.7278 63.31 86.5684 76.7812 75.7543C77.7548 74.9735 78.6942 74.1329 79.597 73.2301C80.4998 72.3273 81.3404 71.3891 82.1212 70.4156C92.9365 56.9443 92.0959 37.2035 79.597 24.7071ZM76.4579 65.8821C75.8442 66.6494 75.1794 67.3912 74.4681 68.1025C73.7568 68.8137 73.0151 69.4774 72.2489 70.0923C61.6252 78.6213 46.0567 77.9588 36.2004 68.1025C25.6339 57.5348 25.6339 40.4011 36.2004 29.8347C46.7668 19.2683 63.9017 19.2671 74.4681 29.8347C84.3245 39.6899 84.9869 55.2583 76.4579 65.8821Z" fill="#A7D0F9"/>
<path d="M55.3415 83.6471C54.7437 83.6471 54.1446 83.6312 53.5444 83.6007C44.9666 83.1603 36.8938 79.5686 30.8146 73.4894C28.1708 70.8456 25.9907 67.8286 24.3327 64.5224C21.0912 58.0649 19.9602 50.8571 21.0619 43.6799C22.1867 36.355 25.5588 29.7048 30.8158 24.449C32.8239 22.4409 35.0638 20.6877 37.4746 19.2372C43.9881 15.3173 51.7571 13.6435 59.3528 14.5243C63.1519 14.9647 66.8217 16.0188 70.2596 17.6573C73.8159 19.3519 77.0453 21.6369 79.8574 24.449C85.9366 30.5271 89.5271 38.5998 89.9687 47.1776C90.4067 55.6932 87.7215 64.027 82.4084 70.6455C81.6166 71.6325 80.7577 72.589 79.8586 73.4894C78.957 74.3909 77.9993 75.2498 77.0135 76.0404C70.8623 80.9789 63.2275 83.6471 55.3427 83.6471H55.3415ZM55.3293 14.9989C49.3281 14.9989 43.2854 16.5947 37.8515 19.8643C35.4921 21.2843 33.2985 23.0009 31.3319 24.9663C20.9631 35.3339 18.4121 51.0987 24.9866 64.1942C26.6092 67.4308 28.7442 70.3845 31.3319 72.9721C37.9394 79.5796 46.6294 82.9395 55.35 82.9407C62.8237 82.9407 70.3182 80.4751 76.5536 75.4694C77.5186 74.6959 78.4568 73.8554 79.3389 72.9721C80.2197 72.0912 81.0603 71.1543 81.8362 70.188C92.6832 56.6765 91.6096 37.2358 79.3389 24.9675C72.7765 18.4051 64.0974 14.9989 55.3293 14.9989Z" fill="#A7D0F9"/>
<path opacity="0.25" d="M76.4597 65.8828C75.8461 66.6502 75.1812 67.3919 74.4699 68.1032C73.7586 68.8144 73.0169 69.4781 72.2507 70.093C61.627 78.622 46.0585 77.9595 36.2022 68.1032C25.6357 57.5355 25.6357 40.4018 36.2022 29.8354C46.7686 19.269 63.9035 19.2678 74.4699 29.8354C84.3263 39.6906 84.9887 55.259 76.4597 65.8828Z" fill="#A7D0F9"/>
<path d="M33.8646 41.7242C33.8244 41.7242 33.7829 41.7169 33.7426 41.7035C33.5523 41.6364 33.4523 41.4265 33.5194 41.2362C34.6735 37.9752 36.5072 35.0716 38.9716 32.6072C39.6523 31.9264 40.3794 31.2835 41.1334 30.6966C41.2932 30.5722 41.5226 30.6015 41.647 30.7601C41.7715 30.9199 41.7422 31.1493 41.5836 31.2737C40.8528 31.8422 40.1489 32.4656 39.4888 33.1244C37.1025 35.5108 35.3262 38.3216 34.2087 41.4802C34.155 41.6303 34.0147 41.7242 33.8634 41.7242H33.8646ZM45.3095 69.7915C45.2558 69.7915 45.2009 69.7794 45.1484 69.7537C42.8646 68.635 40.7869 67.1466 38.9716 65.3312C36.4913 62.851 34.6503 59.9266 33.4974 56.6412C33.4303 56.4508 33.5304 56.241 33.7219 56.1751C33.9134 56.108 34.1221 56.2093 34.1879 56.3996C35.303 59.5814 37.0867 62.4118 39.4888 64.8139C41.2469 66.572 43.2586 68.0128 45.4705 69.0961C45.6523 69.1852 45.7267 69.4048 45.6376 69.5854C45.5742 69.7147 45.4437 69.7903 45.3082 69.7903L45.3095 69.7915ZM77.7053 45.0524C77.5333 45.0524 77.3796 44.9304 77.3467 44.7547C76.5049 40.3371 74.3735 36.316 71.1808 33.1244C68.4163 30.3599 64.9734 28.3616 61.2231 27.3441C61.0279 27.2916 60.9133 27.0903 60.9657 26.8951C61.0182 26.6999 61.2195 26.5852 61.4147 26.6377C65.2882 27.6881 68.8445 29.7524 71.6993 32.6072C74.9957 35.9036 77.1978 40.0565 78.0665 44.6181C78.1043 44.8169 77.9738 45.0085 77.7749 45.0463C77.7517 45.0512 77.7285 45.0524 77.7066 45.0524H77.7053Z" fill="#A7D0F9"/>
<path d="M55.3406 76.3951C54.8673 76.3951 54.3939 76.3829 53.9193 76.3585C47.1349 76.0096 40.7507 73.1695 35.9426 68.3627C30.7625 63.1825 27.9102 56.2956 27.9102 48.9695C27.9102 41.6434 30.7625 34.7565 35.9426 29.5776C41.1228 24.3975 48.0097 21.5439 55.3358 21.5439C62.6619 21.5439 69.5488 24.3963 74.7277 29.5776C79.5357 34.3844 82.3758 40.7687 82.7235 47.5531C83.07 54.2875 80.946 60.8792 76.7443 66.113C76.1246 66.8877 75.4462 67.6441 74.7277 68.3627C74.0176 69.0727 73.2612 69.751 72.4792 70.3793C67.6138 74.2858 61.5748 76.3951 55.3406 76.3951ZM55.3358 22.2759C48.2061 22.2759 41.5022 25.0527 36.4599 30.0949C26.0533 40.5015 26.0533 57.4363 36.4599 67.8442C41.6559 73.0401 48.4891 75.6827 55.3467 75.6827C61.2235 75.6827 67.1173 73.7429 72.0205 69.8071C72.7818 69.1959 73.5186 68.5359 74.2104 67.8442C74.9094 67.1451 75.5707 66.4082 76.1734 65.6543C84.7036 55.0293 83.8594 39.7427 74.2104 30.0949C69.1693 25.0527 62.4654 22.2759 55.3358 22.2759ZM82.1221 70.4159L88.1367 76.4305L82.798 81.7692L76.7834 75.7546C77.7569 74.9738 78.6963 74.1333 79.5979 73.2317C80.4995 72.3301 81.3413 71.3895 82.1209 70.4171L82.1221 70.4159Z" fill="#A7D0F9"/>
<path opacity="0.5" d="M108.479 96.4292L102.795 102.112C101.639 103.27 99.7626 103.27 98.6036 102.112L82.6252 86.1336C81.4687 84.9771 81.4687 83.1007 82.6252 81.9417L88.3092 76.259C89.4658 75.1012 91.3421 75.1012 92.5011 76.259L108.479 92.2361C109.636 93.3939 109.636 95.2702 108.479 96.4292Z" fill="#A7D0F9"/>
<path d="M100.697 103.346C99.8077 103.346 98.9708 102.999 98.3425 102.37L82.3642 86.3914C81.0661 85.0945 81.0661 82.9815 82.3642 81.6822L88.0482 75.9994C88.6765 75.3699 89.5122 75.0234 90.4028 75.0234C91.2934 75.0234 92.1291 75.3699 92.7574 75.9994L108.736 91.9766C110.033 93.2759 110.033 95.3877 108.736 96.687L103.052 102.37C102.423 102.999 101.588 103.346 100.698 103.346H100.697ZM90.4028 75.7567C89.7086 75.7567 89.0571 76.0275 88.5667 76.5179L82.8827 82.2007C81.8701 83.2145 81.8701 84.8627 82.8827 85.8741L98.861 101.852C99.3515 102.343 100.004 102.614 100.698 102.614C101.393 102.614 102.044 102.343 102.534 101.852L108.218 96.1697C109.231 95.1559 109.231 93.5077 108.218 92.4938L92.2413 76.5179C91.7509 76.0275 91.0982 75.7567 90.404 75.7567H90.4028Z" fill="#A7D0F9"/>
<path d="M48.1206 45.9061C49.5786 45.9061 50.7606 44.7241 50.7606 43.2661C50.7606 41.808 49.5786 40.626 48.1206 40.626C46.6625 40.626 45.4805 41.808 45.4805 43.2661C45.4805 44.7241 46.6625 45.9061 48.1206 45.9061Z" fill="#A7D0F9"/>
<path d="M62.5502 45.9061C64.0083 45.9061 65.1903 44.7241 65.1903 43.2661C65.1903 41.808 64.0083 40.626 62.5502 40.626C61.0922 40.626 59.9102 41.808 59.9102 43.2661C59.9102 44.7241 61.0922 45.9061 62.5502 45.9061Z" fill="#A7D0F9"/>
<path d="M64.7557 57.2506C64.3458 57.4055 63.8846 57.2603 63.6419 56.8956C62.8672 55.7256 60.6468 53.3771 55.3385 53.3771C50.0303 53.3771 47.8246 55.7207 47.0401 56.8907C46.7949 57.2555 46.3362 57.4067 45.9238 57.2506H45.9214C45.3565 57.0359 45.1345 56.3563 45.4712 55.8512C46.5118 54.2896 49.2324 51.4922 55.3385 51.4922C61.4446 51.4922 64.1628 54.2896 65.2059 55.8512C65.5402 56.3551 65.3194 57.0359 64.7557 57.2506ZM101.564 99.6529C101.473 99.6529 101.383 99.6188 101.312 99.5517L84.133 83.1268C83.9866 82.9877 83.9817 82.7559 84.1208 82.6095C84.2611 82.4631 84.4917 82.4582 84.6381 82.5985L101.817 99.0234C101.963 99.1625 101.968 99.3943 101.829 99.5407C101.757 99.6163 101.661 99.6541 101.564 99.6541V99.6529Z" fill="#A7D0F9"/>
<path opacity="0.5" d="M21.6172 83.2293L28.6163 107.343L47.2396 101.56L41.4617 83.8174L33.0266 79.9951L21.6172 83.2293Z" fill="#A7D0F9"/>
<path d="M28.3694 107.802L21.1641 82.9776L33.0566 79.6055L41.7601 83.5497L47.7027 101.797L28.3682 107.801L28.3694 107.802ZM22.073 83.4802L28.8647 106.881L46.778 101.319L41.1647 84.0829L32.9981 80.3826L22.0717 83.4802H22.073Z" fill="#A7D0F9"/>
<path d="M33.0273 79.9951L35.676 85.7316L41.4624 83.8174L33.0273 79.9951Z" fill="#A7D0F9"/>
<path d="M27.6045 94.0347C27.4569 94.0347 27.3178 93.9444 27.2617 93.798C27.1909 93.6089 27.2861 93.3978 27.4752 93.3259L39.957 88.624C40.1461 88.5532 40.3571 88.6484 40.4279 88.8375C40.4987 89.0266 40.4035 89.2376 40.2144 89.3096L27.7326 94.0115C27.6899 94.0274 27.646 94.0347 27.6033 94.0347H27.6045ZM28.4316 96.7382C28.2804 96.7382 28.1376 96.643 28.0864 96.4917C28.0205 96.3002 28.1218 96.0928 28.3121 96.0257L33.7252 94.1518C33.9155 94.0859 34.1242 94.1872 34.1913 94.3775C34.2571 94.569 34.1559 94.7764 33.9656 94.8435L28.5524 96.7175C28.5134 96.7309 28.4719 96.7382 28.4329 96.7382H28.4316ZM36.186 100.246C36.0347 100.246 35.8919 100.151 35.8395 99.9992C35.7736 99.8077 35.8749 99.6003 36.0664 99.5344L41.8175 97.5519C42.009 97.486 42.2164 97.5873 42.2823 97.7789C42.3482 97.9704 42.2469 98.1778 42.0554 98.2437L36.3043 100.226C36.2653 100.24 36.225 100.247 36.1847 100.247L36.186 100.246Z" fill="#A7D0F9"/>
<path opacity="0.5" d="M99.0866 50.8359L92.5547 68.8785L106.66 73.689L111.078 60.1311L107.589 53.9738L99.0866 50.8359Z" fill="#A7D0F9"/>
<path d="M106.892 74.1552L92.082 69.1044L98.8652 50.3652L107.838 53.6763L111.473 60.0911L106.89 74.1552H106.892ZM93.0239 68.6518L106.426 73.2219L110.677 60.1704L107.333 54.2692L99.302 51.3059L93.0239 68.6518Z" fill="#A7D0F9"/>
<path d="M107.587 53.9736L106.641 58.7085L111.077 60.131L107.587 53.9736Z" fill="#A7D0F9"/>
<path d="M107.909 63.0584C107.877 63.0584 107.845 63.0536 107.812 63.045L97.987 60.3317C97.7918 60.2781 97.6783 60.0768 97.732 59.8816C97.7857 59.6864 97.987 59.5729 98.1822 59.6266L108.007 62.3399C108.202 62.3936 108.315 62.5948 108.262 62.79C108.217 62.9523 108.07 63.0584 107.909 63.0584ZM101.564 63.6672C101.529 63.6672 101.492 63.6623 101.457 63.6514L97.2708 62.3716C97.0781 62.313 96.9683 62.1081 97.028 61.9141C97.0866 61.7213 97.2916 61.6128 97.4855 61.6713L101.671 62.9511C101.864 63.0096 101.974 63.2146 101.914 63.4086C101.865 63.566 101.721 63.6672 101.564 63.6672ZM105.032 69.4073C104.997 69.4073 104.96 69.4025 104.925 69.3915L100.482 68.0275C100.289 67.9677 100.181 67.7628 100.239 67.57C100.299 67.3772 100.504 67.2687 100.697 67.3272L105.14 68.6912C105.333 68.751 105.441 68.9559 105.383 69.1487C105.334 69.3061 105.19 69.4073 105.032 69.4073Z" fill="#A7D0F9"/>
<path opacity="0.5" d="M90.8241 22.458L90.5508 37.3713L102.136 37.3676L101.98 26.2839L97.8671 22.63L90.8241 22.458Z" fill="#A7D0F9"/>
<path d="M90.1758 37.738L90.4625 22.083L98.0082 22.2684L102.343 26.1188L102.506 37.7356L90.177 37.7393L90.1758 37.738ZM91.1811 22.8333L90.9212 37.006L101.763 37.0024L101.615 26.4506L97.7215 22.9931L91.1811 22.8333Z" fill="#A7D0F9"/>
<path d="M97.8672 22.6299L98.3601 26.3521L101.98 26.2838L97.8672 22.6299Z" fill="#A7D0F9"/>
<path d="M92.3801 29.801C92.1873 29.801 92.0263 29.651 92.0153 29.457C92.0031 29.2557 92.1568 29.0824 92.3593 29.0702L100.269 28.5993C100.471 28.5871 100.643 28.7408 100.655 28.9434C100.668 29.1459 100.514 29.3179 100.311 29.3301L92.402 29.801C92.3947 29.801 92.3874 29.801 92.3801 29.801ZM92.374 31.481C92.1776 31.481 92.0153 31.3248 92.008 31.1272C92.0019 30.9246 92.1605 30.7563 92.3618 30.749L95.7631 30.6392C95.9657 30.6331 96.134 30.7917 96.1413 30.993C96.1474 31.1955 95.9888 31.3638 95.7875 31.3712L92.3862 31.481C92.3862 31.481 92.3776 31.481 92.374 31.481ZM96.1572 34.8347C95.9608 34.8347 95.7973 34.6786 95.7912 34.4797C95.7851 34.2772 95.9437 34.1088 96.1462 34.1027L99.7586 33.9905C99.9599 33.9844 100.13 34.143 100.136 34.3455C100.142 34.548 99.9831 34.7164 99.7806 34.7225L96.1682 34.8347C96.1682 34.8347 96.1609 34.8347 96.156 34.8347H96.1572Z" fill="#A7D0F9"/>
<path opacity="0.5" d="M37.6645 19.5507C36.5946 20.1948 35.5527 20.9012 34.545 21.671C33.3384 22.5921 32.1782 23.6047 31.0753 24.7076C20.3466 35.4351 18.208 51.5025 24.6618 64.3588L14.3906 65.3019L10.9258 17.8622L33.3408 16.3652L37.6633 19.5507H37.6645Z" fill="#A7D0F9"/>
<path d="M14.0536 65.7011L10.5352 17.5233L33.4516 15.9922L38.3243 19.5826L37.8546 19.8657C36.7908 20.5062 35.7526 21.2113 34.768 21.9629C33.5675 22.8803 32.4122 23.8905 31.3349 24.9677C20.9662 35.3353 18.4151 51.1001 24.9897 64.1956L25.2301 64.6751L14.0536 65.7011ZM11.3196 18.204L14.7295 64.9044L24.0991 64.0443C21.0394 57.7101 19.9902 50.6817 21.0638 43.6813C22.1886 36.3564 25.5607 29.7062 30.8177 24.4504C31.9181 23.35 33.0966 22.3179 34.3239 21.3821C35.1853 20.7246 36.0868 20.1011 37.0116 19.5241L33.2345 16.7413L11.3196 18.2053V18.204Z" fill="#A7D0F9"/>
<path d="M37.6662 19.5507C36.5963 20.1948 35.5544 20.9012 34.5467 21.671L33.3438 16.3652L37.6662 19.5507Z" fill="#A7D0F9"/>
<g opacity="0.5">
<path d="M50.8633 91.9688C52.2526 91.9688 53.3789 90.8425 53.3789 89.4531C53.3789 88.0638 52.2526 86.9375 50.8633 86.9375C49.4739 86.9375 48.3477 88.0638 48.3477 89.4531C48.3477 90.8425 49.4739 91.9688 50.8633 91.9688Z" fill="#A7D0F9"/>
<path d="M65.8762 86.7738C66.3903 86.7738 66.807 86.3571 66.807 85.843C66.807 85.3289 66.3903 84.9121 65.8762 84.9121C65.3621 84.9121 64.9453 85.3289 64.9453 85.843C64.9453 86.3571 65.3621 86.7738 65.8762 86.7738Z" fill="#A7D0F9"/>
<path d="M73.9621 95.0404C75.406 95.0404 76.5766 93.8699 76.5766 92.426C76.5766 90.9821 75.406 89.8115 73.9621 89.8115C72.5182 89.8115 71.3477 90.9821 71.3477 92.426C71.3477 93.8699 72.5182 95.0404 73.9621 95.0404Z" fill="#A7D0F9"/>
<path d="M81.1831 19.8252C82.1385 19.8252 82.913 19.0506 82.913 18.0952C82.913 17.1398 82.1385 16.3652 81.1831 16.3652C80.2277 16.3652 79.4531 17.1398 79.4531 18.0952C79.4531 19.0506 80.2277 19.8252 81.1831 19.8252Z" fill="#A7D0F9"/>
</g>
<g opacity="0.25">
<path d="M111.359 50.3612H107.45C104.512 50.3612 101.853 49.1705 99.9275 47.2453C98.0011 45.319 96.8116 42.6606 96.8116 39.7228C96.8116 38.914 96.9019 38.1271 97.0727 37.3694L90.5457 37.3719L90.819 22.4586L97.8621 22.6306L101.975 26.2845L102.034 30.5643C103.62 29.6237 105.472 29.0832 107.45 29.0832H111.359C117.234 29.0832 121.999 24.3203 121.999 18.446C121.999 15.5083 120.808 12.8487 118.883 10.9235C116.956 8.99712 114.298 7.80762 111.36 7.80762H10.6382C4.76263 7.80518 -0.00146625 12.5693 -0.00146625 18.4448C-0.00146625 21.3826 1.18925 24.0422 3.11441 25.9661C5.04079 27.8925 7.69917 29.082 10.6369 29.082H11.7423L10.9224 17.8629L33.3387 16.3647L37.6612 19.5501C50.8494 11.614 68.2222 13.333 79.5962 24.7071C92.0939 37.2035 92.9345 56.9443 82.1204 70.4168L88.1338 76.4302L88.307 76.2582C89.4209 75.1431 91.2021 75.1053 92.366 76.1386C94.2216 73.5144 97.2362 71.7698 100.664 71.6453L92.549 68.8772L99.0808 50.8346L107.583 53.9724L111.072 60.1298L107.323 71.6368H111.358C117.233 71.6368 121.997 66.8739 121.997 60.9972C121.997 58.0594 120.807 55.3998 118.881 53.4759C116.955 51.5495 114.297 50.36 111.359 50.36V50.3612ZM81.181 19.8246C80.2245 19.8246 79.451 19.0511 79.451 18.0947C79.451 17.1382 80.2245 16.3647 81.181 16.3647C82.1375 16.3647 82.911 17.1394 82.911 18.0947C82.911 19.0499 82.1363 19.8246 81.181 19.8246ZM111.359 92.9148H108.984C109.595 94.0397 109.428 95.4756 108.477 96.4284L102.793 102.111C101.637 103.269 99.7592 103.269 98.6014 102.111L82.623 86.1328C81.4665 84.9763 81.4665 83.0999 82.623 81.9421L82.7963 81.7689L76.7817 75.7543C63.3104 86.5696 43.5708 85.7278 31.0732 73.2301C28.4026 70.5595 26.2639 67.5583 24.6596 64.3583L14.3884 65.3013L13.2941 50.3246C13.0037 50.3478 12.7109 50.3612 12.4145 50.3612H10.6369C4.76141 50.3612 -0.00268625 55.1241 -0.00268625 60.9984C-0.00268625 63.9362 1.18803 66.597 3.11319 68.5209C5.03957 70.4473 7.69795 71.6368 10.6357 71.6368H22.0439C24.9817 71.6368 27.6413 72.8275 29.5665 74.7527C31.0146 76.1996 32.0467 78.0638 32.4701 80.1487L33.0227 79.9926L41.4578 83.8148L47.2357 101.557L28.6124 107.34L24.3522 92.6623C23.6092 92.827 22.8369 92.9136 22.0439 92.9136H10.6357C4.76019 92.9136 -0.00390625 97.6777 -0.00390625 103.553C-0.00390625 106.491 1.18681 109.151 3.11197 111.076C5.03835 113.002 7.69673 114.192 10.6345 114.192H111.355C117.231 114.192 121.995 109.428 121.995 103.552C121.995 100.614 120.804 97.9546 118.879 96.0295C116.953 94.1031 114.294 92.9136 111.356 92.9136L111.359 92.9148ZM50.8616 91.9681C49.472 91.9681 48.3447 90.842 48.3447 89.4525C48.3447 88.0629 49.472 86.9368 50.8616 86.9368C52.2511 86.9368 53.3772 88.0629 53.3772 89.4525C53.3772 90.842 52.2511 91.9681 50.8616 91.9681ZM65.8749 86.7733C65.36 86.7733 64.944 86.3561 64.944 85.8425C64.944 85.3289 65.36 84.9116 65.8749 84.9116C66.3897 84.9116 66.8057 85.3276 66.8057 85.8425C66.8057 86.3573 66.3885 86.7733 65.8749 86.7733ZM73.961 95.0401C72.5178 95.0401 71.3478 93.8701 71.3478 92.4256C71.3478 90.9811 72.5178 89.8124 73.961 89.8124C75.4043 89.8124 76.5755 90.9823 76.5755 92.4256C76.5755 93.8689 75.4055 95.0401 73.961 95.0401Z" fill="#A7D0F9"/>
</g>
<g opacity="0.25">
<path d="M13.3303 86.4976C16.3583 86.4976 18.813 84.0429 18.813 81.0149C18.813 77.9869 16.3583 75.5322 13.3303 75.5322C10.3023 75.5322 7.84766 77.9869 7.84766 81.0149C7.84766 84.0429 10.3023 86.4976 13.3303 86.4976Z" fill="#A7D0F9"/>
</g>
</g>
</g>
<defs>
<clipPath id="clip0_1895_13658">
<rect width="122" height="122" fill="white"/>
</clipPath>
<clipPath id="clip1_1895_13658">
<rect width="122" height="122" fill="white"/>
</clipPath>
</defs>
</svg>
