<svg width="102" height="102" viewBox="0 0 102 102" fill="none" xmlns="http://www.w3.org/2000/svg">
<g clip-path="url(#clip0_1318_12611)">
<g clip-path="url(#clip1_1318_12611)">
<path d="M89.25 0H12.75C5.71625 0 0 5.71625 0 12.75V89.25C0 96.2795 5.71625 102 12.75 102H89.25C96.2795 102 102 96.2795 102 89.25V12.75C102 5.71625 96.2795 0 89.25 0Z" fill="#3B5999"/>
<path d="M51 0H12.75C5.71625 0 0 5.71625 0 12.75V89.25C0 96.2795 5.71625 102 12.75 102H51V0Z" fill="#334D85"/>
<path d="M70.125 51V38.25C70.125 34.731 72.981 35.0625 76.5 35.0625H82.875V19.125H70.125C59.5595 19.125 51 27.6845 51 38.25V51H38.25V66.9375H51V102H70.125V66.9375H79.6875L86.0625 51H70.125Z" fill="white"/>
<path d="M60.6177 21.6494C54.8675 24.9517 51 31.1482 51 38.2499V50.9999H38.25V66.9374H51V102H60.6177V21.6494Z" fill="#DEDEDE"/>
</g>
</g>
<defs>
<clipPath id="clip0_1318_12611">
<rect width="102" height="102" fill="white"/>
</clipPath>
<clipPath id="clip1_1318_12611">
<rect width="102" height="102" fill="white"/>
</clipPath>
</defs>
</svg>
