<svg width="102" height="102" viewBox="0 0 102 102" fill="none" xmlns="http://www.w3.org/2000/svg">
<g clip-path="url(#clip0_1318_12623)">
<g clip-path="url(#clip1_1318_12623)">
<path d="M83.5388 0H18.4612C8.26535 0 0 8.26535 0 18.4612V83.5388C0 93.7347 8.26535 102 18.4612 102H83.5388C93.7347 102 102 93.7347 102 83.5388V18.4612C102 8.26535 93.7347 0 83.5388 0Z" fill="url(#paint0_linear_1318_12623)"/>
<g style="mix-blend-mode:multiply">
<path d="M101.921 85.3924V64.521C101.921 64.521 101.841 64.4415 101.815 64.415C101.682 64.3091 101.576 64.1766 101.47 64.0707C101.338 63.9647 101.232 63.8323 101.126 63.7264C96.6232 59.1971 86.0021 48.6025 81.4993 44.0998C79.1685 41.8219 75.7252 40.4976 70.6398 40.4976C66.349 40.4976 63.0381 42.1398 60.8398 44.2057V44.0203H60.4954V43.676H60.1511V43.3317H59.8068V42.9873H59.4624V42.643H59.1181V42.2987H58.7738V41.9544H58.4295V41.61H55.2246C55.2246 41.61 55.0392 41.4246 54.9332 41.3187C54.8273 41.1862 54.6949 41.0803 54.5889 40.9743C48.7619 35.1473 42.9348 29.3202 37.1077 23.4932C35.7569 22.0364 33.8234 21.1094 31.7045 21.1094C27.599 21.1094 24.2617 24.4467 24.2617 28.5256C24.2617 30.671 25.1888 32.5781 26.6455 33.9554C28.8969 36.2068 31.1482 38.4846 33.4261 40.736C33.532 40.8684 33.6645 40.9743 33.7704 41.0803C33.8764 41.2127 34.0088 41.3187 34.1147 41.4246C34.1677 41.4776 34.1942 41.5306 34.2472 41.5835H25.2682V82.7967C29.9299 86.8227 39.9418 98.0266 44.5505 102.079H85.2604C94.7956 101.046 101.417 93.3119 102.053 85.4984L101.921 85.3924Z" fill="#126BC4"/>
</g>
<path d="M25.109 41.69H37.955V82.9032H25.109V41.69ZM31.5453 21.2158C35.6507 21.2158 38.9615 24.5531 38.9615 28.6321C38.9615 32.711 35.6242 36.0748 31.5453 36.0748C27.4663 36.0748 24.1025 32.7375 24.1025 28.6321C24.1025 24.5266 27.4399 21.2158 31.5453 21.2158ZM45.9805 41.69H58.2703V47.3316H58.4292C60.1508 44.1003 64.3357 40.6835 70.5601 40.6835C83.5385 40.6835 85.9223 49.2122 85.9223 60.3101V82.9297H73.1293V62.8793C73.1293 58.0852 73.0233 51.9403 66.4811 51.9403C59.9389 51.9403 58.8 57.1582 58.8 62.535V82.9297H45.9805V41.7165V41.69Z" fill="white"/>
</g>
</g>
<defs>
<linearGradient id="paint0_linear_1318_12623" x1="5.42976" y1="5.42976" x2="96.5702" y2="96.5702" gradientUnits="userSpaceOnUse">
<stop stop-color="#007BB8"/>
<stop offset="1" stop-color="#0044E9"/>
</linearGradient>
<clipPath id="clip0_1318_12623">
<rect width="102" height="102" fill="white"/>
</clipPath>
<clipPath id="clip1_1318_12623">
<rect width="102" height="102" fill="white"/>
</clipPath>
</defs>
</svg>
