<svg width="102" height="102" viewBox="0 0 102 102" fill="none" xmlns="http://www.w3.org/2000/svg">
<g clip-path="url(#clip0_1318_12635)">
<g clip-path="url(#clip1_1318_12635)">
<path d="M83.5388 0H18.4612C8.26535 0 0 8.26535 0 18.4612V83.5388C0 93.7347 8.26535 102 18.4612 102H83.5388C93.7347 102 102 93.7347 102 83.5388V18.4612C102 8.26535 93.7347 0 83.5388 0Z" fill="#FF0000"/>
<g style="mix-blend-mode:multiply">
<path d="M101.974 83.5389V53.1587C94.8751 46.0603 87.7767 38.9619 80.6518 31.837C77.9501 29.0294 74.1625 27.2812 69.9777 27.2812H31.9693C23.7585 27.2812 17.1104 33.9294 17.1104 42.1402V59.8333C17.1104 64.0447 18.8585 67.8058 21.6661 70.5074C32.1548 80.9961 42.6435 91.4848 53.1322 101.974H83.5123C93.6567 101.974 101.974 93.6567 101.974 83.5124V83.5389Z" fill="#CC0000"/>
</g>
<path d="M62.5083 52.3111L45.4774 60.7339C44.8152 61.1047 42.5374 60.6014 42.5374 59.8598V42.564C42.5374 41.7959 44.8152 41.3192 45.5039 41.69L61.8197 50.563C62.5083 50.9603 63.2235 51.9403 62.5348 52.3111H62.5083ZM70.004 27.2812H31.9957C23.7849 27.2812 17.1367 33.9294 17.1367 42.1402V59.8333C17.1367 68.0442 23.7849 74.6923 31.9957 74.6923H70.004C78.2149 74.6923 84.863 68.0442 84.863 59.8333V42.1402C84.863 33.9294 78.2149 27.2812 70.004 27.2812Z" fill="white"/>
</g>
</g>
<defs>
<clipPath id="clip0_1318_12635">
<rect width="102" height="102" fill="white"/>
</clipPath>
<clipPath id="clip1_1318_12635">
<rect width="102" height="102" fill="white"/>
</clipPath>
</defs>
</svg>
